<svg width="52" height="50" viewBox="0 0 52 50" fill="none" xmlns="http://www.w3.org/2000/svg">
<path d="M50.5169 20.8732L41.9344 29.1403L37.0363 24.4137L40.7381 20.8732C41.0327 20.5417 41.0128 20.0479 40.6924 19.7392C40.3724 19.431 39.8597 19.4118 39.5156 19.6956L35.8053 23.2279L33.3603 20.8646L41.9344 12.5975C42.2705 12.2717 42.2705 11.7457 41.9344 11.4199C41.5961 11.0962 41.0501 11.0962 40.7119 11.4199L31.5138 20.2803C31.3496 20.4369 31.2573 20.6506 31.2573 20.8732C31.2573 21.0958 31.3496 21.3091 31.5138 21.4661L32.7448 22.6432L31.5138 23.8294C30.0585 22.4263 27.7794 22.2029 26.0607 23.2948L25.3847 22.6432C24.5724 21.8628 23.4718 21.4245 22.3242 21.4241C21.7819 21.4241 21.2439 21.5203 20.7376 21.7083L19.2552 20.2803L19.8707 19.6956C20.035 19.5386 20.1272 19.3254 20.1272 19.1027C20.1272 18.8801 20.035 18.6664 19.8707 18.5099L11.2623 10.2428C10.9224 9.91739 10.373 9.91942 10.0356 10.2468C9.69777 10.5743 9.69989 11.1031 10.0398 11.4285L18.0069 19.1027L17.3914 19.687L13.0567 23.8208L9.99663 20.8646C9.83366 20.7064 9.61227 20.6175 9.38114 20.6175C9.15001 20.6175 8.9282 20.7064 8.76565 20.8646C8.42912 21.1904 8.42912 21.7164 8.76565 22.0422L11.8342 24.9984L10.6032 26.1755L9.45014 27.4033L1.48306 19.6956C1.32051 19.5374 1.0987 19.4485 0.86757 19.4485C0.636444 19.4485 0.415054 19.5374 0.25208 19.6956C-0.0840266 20.0214 -0.0840266 20.5474 0.25208 20.8732L8.83465 29.1403C8.99847 29.2965 9.21986 29.3837 9.45014 29.3825C9.68084 29.3837 9.90223 29.2965 10.0661 29.1403L11.2623 27.9627L12.4844 29.1403C10.7924 30.7709 10.7924 33.4135 12.4844 35.0441L14.1146 36.589C14.2771 36.7472 14.4989 36.8361 14.7301 36.8361C14.9612 36.8361 15.1826 36.7472 15.3455 36.589C15.6817 36.2633 15.6817 35.7373 15.3455 35.4115L13.7416 33.8669C13.2519 33.3968 12.9767 32.7582 12.9767 32.0924C12.9767 31.4261 13.2519 30.7876 13.7416 30.3179L14.3487 29.7332L20.4862 23.8208C21.5165 22.8793 23.1319 22.8793 24.1622 23.8208L29.6758 29.1317C29.9704 29.4632 29.9505 29.957 29.6305 30.2657C29.3101 30.5739 28.7974 30.5931 28.4537 30.3093L24.4568 26.4597C24.1148 26.1323 23.5615 26.134 23.2216 26.4638C22.8817 26.7937 22.8834 27.3262 23.2259 27.6536L27.2223 31.5036C27.9656 32.2249 29.0874 32.4426 30.0623 32.0545C31.0376 31.6663 31.6725 30.7493 31.67 29.7332C31.6692 29.0689 31.3948 28.432 30.9068 27.9627L27.3353 24.5221C28.3309 24.0875 29.501 24.2791 30.2913 25.0065L37.6518 32.0965C38.1365 32.567 38.4078 33.2039 38.4061 33.8669C38.4078 34.5299 38.1365 35.1664 37.6518 35.637L35.1983 38.0003L32.6842 40.4137L30.9068 42.134L26.0002 46.8602C25.662 47.184 25.1159 47.184 24.7777 46.8602C24.4416 46.5349 24.4416 46.0089 24.7777 45.6831L30.3349 40.355C30.5821 40.1511 30.69 39.8306 30.6138 39.5257C30.5377 39.2207 30.2904 38.9825 29.9738 38.9091C29.6567 38.8357 29.3244 38.9393 29.1124 39.1778L23.5899 44.4888C23.2462 44.7726 22.7335 44.7534 22.4131 44.4451C22.0931 44.1365 22.0732 43.6427 22.3678 43.3112L27.8814 38.0003C28.0456 37.8437 28.1379 37.63 28.1379 37.4074C28.1379 37.1848 28.0456 36.9715 27.8814 36.8145C27.5432 36.4908 26.9971 36.4908 26.6589 36.8145L21.1364 42.134C20.7986 42.4578 20.2525 42.4578 19.9143 42.134C19.7501 41.977 19.6578 41.7638 19.6578 41.5412C19.6578 41.3185 19.7501 41.1049 19.9143 40.9483L25.4279 35.637C25.5921 35.4804 25.6844 35.2667 25.6844 35.0441C25.6844 34.8215 25.5921 34.6082 25.4279 34.4512C25.0897 34.1275 24.5436 34.1275 24.2054 34.4512L18.6833 39.7707C18.3434 40.0957 17.794 40.0941 17.4566 39.7666C17.1188 39.4392 17.1209 38.91 17.4608 38.585L24.1275 32.1715C24.4674 31.8441 24.4674 31.3132 24.1275 30.9858C23.7876 30.6583 23.2364 30.6583 22.8965 30.9858L16.1951 37.4241C15.1809 38.4023 15.1809 39.9868 16.1951 40.965C16.643 41.4054 17.2462 41.668 17.8854 41.6998C17.9629 42.9711 19.0186 43.9844 20.3389 44.0545C20.4121 45.3295 21.4691 46.3473 22.7924 46.4178C22.8174 47.0458 23.0866 47.6423 23.5467 48.088C24.3281 48.839 25.5168 49.0335 26.5116 48.5724L27.2223 49.2655C27.9525 49.9693 29.0463 50.1903 30.0089 49.8282C30.9711 49.4662 31.6196 48.5899 31.6611 47.5954C32.3143 47.5762 32.9353 47.3161 33.395 46.8688C33.8454 46.4333 34.1138 45.8539 34.1493 45.2402C35.473 45.1701 36.5296 44.152 36.6028 42.8769C37.6353 42.8374 38.5449 42.2123 38.9208 41.2855C39.2972 40.3583 39.0677 39.3051 38.3367 38.6017L37.7212 38.017L38.9522 36.8312C39.7624 36.0488 40.2174 34.9886 40.2179 33.8832C40.1975 33.0567 39.9228 32.2547 39.4288 31.5786L40.7381 30.3179L41.3536 30.9107C41.6918 31.2345 42.2379 31.2345 42.5761 30.9107L51.7479 22.0504C52.084 21.725 52.084 21.1986 51.7479 20.8732C51.5854 20.715 51.3636 20.6261 51.1324 20.6261C50.9013 20.6261 50.6799 20.715 50.5169 20.8732V20.8732ZM12.5107 26.777L18.0331 21.4661L19.2552 22.6432L13.7416 27.9627L12.5107 26.777ZM29.6758 48.0378C29.3376 48.3616 28.7915 48.3616 28.4537 48.0378L27.8382 47.4449L29.0692 46.2674L29.6758 46.8521C29.84 47.0087 29.9323 47.2223 29.9323 47.4449C29.9323 47.6676 29.84 47.8812 29.6758 48.0378ZM32.1293 45.6745C31.7911 45.9983 31.245 45.9983 30.9068 45.6745L30.3349 45.0816L30.9504 44.4888L31.557 43.9041L32.1729 44.4888C32.3367 44.6458 32.429 44.859 32.429 45.0816C32.429 45.3043 32.3367 45.5179 32.1729 45.6745H32.1293ZM34.5828 43.3112C34.2446 43.6349 33.6985 43.6349 33.3603 43.3112L32.7448 42.7183L33.9673 41.5412L34.5828 42.134C34.9189 42.4598 34.9189 42.9858 34.5828 43.3112V43.3112ZM37.0363 40.9483C36.8733 41.1061 36.6519 41.195 36.4208 41.195C36.1897 41.195 35.9678 41.1061 35.8053 40.9483L35.1983 40.355L36.4034 39.1778L37.0189 39.7707C37.3597 40.0916 37.3677 40.618 37.0363 40.9483V40.9483ZM38.2584 30.3179L32.7448 25.0065L33.9673 23.8294L39.4898 29.1403L38.2584 30.3179Z" fill="#FFBB01"/>
<path d="M17.8139 13.3201H36.129C36.5888 13.3201 36.9615 12.9473 36.9615 12.4876V0.832504C36.9615 0.372757 36.5888 0 36.129 0H17.8139C17.3542 0 16.9814 0.372757 16.9814 0.832504V12.4876C16.9814 12.9473 17.3542 13.3201 17.8139 13.3201ZM18.6465 9.99005C19.5659 9.99005 20.3115 10.7356 20.3115 11.6551H18.6465V9.99005ZM35.2965 11.6551H33.6315C33.6315 10.7356 34.377 9.99005 35.2965 9.99005V11.6551ZM35.2965 3.33002C34.377 3.33002 33.6315 2.5845 33.6315 1.66501H35.2965V3.33002ZM35.2965 4.99502V8.32504C33.4571 8.32504 31.9665 9.81607 31.9665 11.6551H21.9765C21.9765 9.81607 20.4854 8.32504 18.6465 8.32504V4.99502C20.4854 4.99502 21.9765 3.504 21.9765 1.66501H31.9665C31.9665 3.504 33.4571 4.99502 35.2965 4.99502ZM18.6465 1.66501H20.3115C20.3115 2.5845 19.5659 3.33002 18.6465 3.33002V1.66501Z" fill="#FFBB01"/>
<path d="M26.9713 9.99005C28.8102 9.99005 30.3013 8.49902 30.3013 6.66003C30.3013 4.82104 28.8102 3.33002 26.9713 3.33002C25.1319 3.33002 23.6412 4.82104 23.6412 6.66003C23.6412 8.49902 25.1319 9.99005 26.9713 9.99005ZM26.9713 4.99503C27.8907 4.99503 28.6363 5.74054 28.6363 6.66003C28.6363 7.57953 27.8907 8.32504 26.9713 8.32504C26.0518 8.32504 25.3062 7.57953 25.3062 6.66003C25.3062 5.74054 26.0518 4.99503 26.9713 4.99503Z" fill="#FFBB01"/>
<path d="M33.6313 6.66002C33.6313 7.11977 33.2586 7.49252 32.7988 7.49252C32.3391 7.49252 31.9663 7.11977 31.9663 6.66002C31.9663 6.20027 32.3391 5.82751 32.7988 5.82751C33.2586 5.82751 33.6313 6.20027 33.6313 6.66002Z" fill="#FFBB01"/>
<path d="M21.9763 6.66002C21.9763 7.11977 21.6035 7.49252 21.1438 7.49252C20.684 7.49252 20.3113 7.11977 20.3113 6.66002C20.3113 6.20027 20.684 5.82751 21.1438 5.82751C21.6035 5.82751 21.9763 6.20027 21.9763 6.66002Z" fill="#FFBB01"/>
<path d="M51.805 5.36978L48.475 0.374755C48.3202 0.144272 48.0612 0.00646973 47.784 0.00646973C47.5068 0.00646973 47.2474 0.144272 47.0929 0.374755L43.7629 5.36978C43.6719 5.50514 43.6227 5.66449 43.6215 5.82749V9.15751C43.6215 9.61726 43.9942 9.99001 44.454 9.99001C44.9137 9.99001 45.2865 9.61726 45.2865 9.15751V6.07708L47.784 2.33081L50.2815 6.07708V14.985C50.2815 15.4448 50.6543 15.8175 51.114 15.8175C51.5738 15.8175 51.9465 15.4448 51.9465 14.985V5.82749C51.9453 5.66449 51.8961 5.50514 51.805 5.36978Z" fill="#FFBB01"/>
<path d="M48.6166 11.655V6.66002C48.6166 6.20027 48.2438 5.82751 47.784 5.82751C47.3243 5.82751 46.9515 6.20027 46.9515 6.66002V11.655C46.9515 12.1148 47.3243 12.4875 47.784 12.4875C48.2438 12.4875 48.6166 12.1148 48.6166 11.655Z" fill="#FFBB01"/>
<path d="M2.82874 7.49256H3.66124V17.4826C3.66124 17.9424 4.034 18.3151 4.49374 18.3151C4.95349 18.3151 5.32625 17.9424 5.32625 17.4826V6.66006C5.32625 6.20031 4.95349 5.82755 4.49374 5.82755H4.44375L6.99126 2.26462L9.53877 5.82755H9.48877C9.02902 5.82755 8.65626 6.20031 8.65626 6.66006V8.32507C8.65626 8.78481 9.02902 9.15757 9.48877 9.15757C9.94852 9.15757 10.3213 8.78481 10.3213 8.32507V7.49256H11.1538C11.4647 7.49094 11.7489 7.31655 11.8908 7.03972C12.0326 6.76331 12.0082 6.43039 11.8282 6.17714L7.66563 0.349612C7.50873 0.133356 7.25832 0.00531006 6.99126 0.00531006C6.72419 0.00531006 6.47338 0.133356 6.31688 0.349612L2.15436 6.17714C1.97388 6.43039 1.94989 6.76331 2.09176 7.03972C2.23363 7.31655 2.51777 7.49094 2.82874 7.49256Z" fill="#FFBB01"/>
<path d="M6.99121 11.6551V14.1526C6.99121 14.6123 7.36397 14.9851 7.82372 14.9851C8.28346 14.9851 8.65622 14.6123 8.65622 14.1526V11.6551C8.65622 11.1953 8.28346 10.8226 7.82372 10.8226C7.36397 10.8226 6.99121 11.1953 6.99121 11.6551Z" fill="#FFBB01"/>
</svg>
