<svg width="52" height="50" viewBox="0 0 52 50" fill="none" xmlns="http://www.w3.org/2000/svg">
<path d="M43.8345 36.7029L40.7924 39.6525L38.9706 37.8778C38.6336 37.5511 38.0873 37.5511 37.7504 37.8778C37.4134 38.2045 37.4134 38.7342 37.7504 39.0609L40.1824 41.419C40.3435 41.5768 40.5633 41.6655 40.7924 41.6655C41.0215 41.6655 41.241 41.5768 41.4025 41.419L45.0891 37.8778C45.3341 37.6744 45.4411 37.3546 45.3656 37.0503C45.2901 36.7456 45.045 36.508 44.7312 36.4347C44.4173 36.3615 44.0875 36.4653 43.8773 36.7029H43.8345Z" fill="#FFBB01"/>
<path d="M45.0891 30.9123V28.3292C45.0891 27.8691 44.7043 27.496 44.2297 27.496H41.6518V26.6628C41.6518 25.2824 42.8061 24.1632 44.2297 24.1632C44.7043 24.1632 45.0891 23.7901 45.0891 23.33C45.0891 22.8698 44.7043 22.4968 44.2297 22.4968C41.8569 22.4968 39.9331 24.3621 39.9331 26.6628V27.496H37.3551C36.8805 27.496 36.4958 27.8691 36.4958 28.3292V30.9123C32.0888 32.8708 29.6841 37.5414 30.7175 42.1334C31.7514 46.7258 35.9444 50.0001 40.7924 50.0001C45.64 50.0001 49.8334 46.7258 50.8673 42.1334C51.9008 37.5414 49.4961 32.8708 45.0891 30.9123V30.9123ZM41.6518 48.3263V47.4931C41.6518 47.033 41.267 46.6599 40.7924 46.6599C40.3179 46.6599 39.9331 47.033 39.9331 47.4931V48.3263C35.8353 47.9455 32.5919 44.8006 32.1991 40.8274H33.0585C33.533 40.8274 33.9178 40.4543 33.9178 39.9942C33.9178 39.5341 33.533 39.161 33.0585 39.161H32.1991C32.5231 36.0491 34.6168 33.3753 37.6215 32.237C37.9522 32.1133 38.1704 31.8057 38.1716 31.4619V29.1625H43.3276V31.4619C43.3285 31.8057 43.5466 32.1133 43.8773 32.237C46.9156 33.3505 49.0467 36.0291 49.3857 39.161H48.5264C48.0518 39.161 47.6671 39.5341 47.6671 39.9942C47.6671 40.4543 48.0518 40.8274 48.5264 40.8274H49.3857C48.993 44.8006 45.7495 47.9455 41.6518 48.3263V48.3263Z" fill="#FFBB01"/>
<path d="M28.0828 43.327C27.9024 43.327 4.70049 43.327 4.70049 43.327C3.27681 43.327 2.1225 42.2078 2.1225 40.8274V14.1646H46.8077V29.5457C46.8077 30.0058 47.1924 30.3789 47.667 30.3789C48.1416 30.3789 48.5263 30.0058 48.5263 29.5457V8.33212C48.5263 6.03143 46.6025 4.16606 44.2297 4.16606H42.511V3.33285C42.511 2.87271 42.1263 2.49964 41.6517 2.49964C41.1771 2.49964 40.7924 2.87271 40.7924 3.33285V6.6657C40.7924 7.58598 40.0228 8.33212 39.0737 8.33212C38.1246 8.33212 37.355 7.58598 37.355 6.6657V3.33285C37.355 2.41257 38.1246 1.66642 39.0737 1.66642C39.5483 1.66642 39.933 1.29335 39.933 0.833212C39.933 0.373074 39.5483 0 39.0737 0C37.1755 0 35.6364 1.4923 35.6364 3.33285V4.16606H27.9024V3.33285C27.9024 2.87271 27.5176 2.49964 27.0431 2.49964C26.5685 2.49964 26.1837 2.87271 26.1837 3.33285V6.6657C26.1837 7.58598 25.4142 8.33212 24.4651 8.33212C23.516 8.33212 22.7464 7.58598 22.7464 6.6657V3.33285C22.7464 2.41257 23.516 1.66642 24.4651 1.66642C24.9396 1.66642 25.3244 1.29335 25.3244 0.833212C25.3244 0.373074 24.9396 0 24.4651 0C22.5668 0 21.0278 1.4923 21.0278 3.33285V4.16606H13.2938V3.33285C13.2938 2.87271 12.909 2.49964 12.4345 2.49964C11.9599 2.49964 11.5751 2.87271 11.5751 3.33285V6.6657C11.5751 7.58598 10.8056 8.33212 9.85647 8.33212C8.90735 8.33212 8.13781 7.58598 8.13781 6.6657V3.33285C8.13781 2.41257 8.90735 1.66642 9.85647 1.66642C10.331 1.66642 10.7158 1.29335 10.7158 0.833212C10.7158 0.373074 10.331 0 9.85647 0C7.95823 0 6.41915 1.4923 6.41915 3.33285V4.16606H4.70049C2.32768 4.16606 0.403839 6.03143 0.403839 8.33212V40.8274C0.403839 43.1281 2.32768 44.9935 4.70049 44.9935H24.4651C28.9766 44.9935 28.9766 44.9935 28.9766 44.1603C28.9778 43.9389 28.888 43.7257 28.7273 43.5687C28.557 43.4043 28.3233 43.3165 28.0828 43.327ZM4.70049 5.83249H6.41915V6.6657C6.41915 8.50625 7.95823 9.99855 9.85647 9.99855C11.7547 9.99855 13.2938 8.50625 13.2938 6.6657V5.83249H21.0278V6.6657C21.0278 8.50625 22.5668 9.99855 24.4651 9.99855C26.3633 9.99855 27.9024 8.50625 27.9024 6.6657V5.83249H35.6364V6.6657C35.6364 8.50625 37.1755 9.99855 39.0737 9.99855C40.9719 9.99855 42.511 8.50625 42.511 6.6657V5.83249H44.2297C45.6534 5.83249 46.8077 6.95171 46.8077 8.33212V12.4982H2.1225V8.33212C2.1225 6.95171 3.27681 5.83249 4.70049 5.83249Z" fill="#FFBB01"/>
<path d="M15.8719 17.4975C15.8719 17.0373 15.4871 16.6642 15.0125 16.6642H8.13789C7.66333 16.6642 7.27856 17.0373 7.27856 17.4975V24.1632C7.27856 24.6233 7.66333 24.9964 8.13789 24.9964H15.0125C15.4871 24.9964 15.8719 24.6233 15.8719 24.1632V17.4975ZM14.1532 23.3299H8.99723V18.3307H14.1532V23.3299Z" fill="#FFBB01"/>
<path d="M15.0125 29.9956C15.4871 29.9956 15.8719 29.6226 15.8719 29.1624C15.8719 28.7023 15.4871 28.3292 15.0125 28.3292H8.13789C7.66333 28.3292 7.27856 28.7023 7.27856 29.1624V35.8281C7.27856 36.2883 7.66333 36.6613 8.13789 36.6613H15.0125C15.4871 36.6613 15.8719 36.2883 15.8719 35.8281V32.4953C15.8719 32.0351 15.4871 31.6621 15.0125 31.6621C14.538 31.6621 14.1532 32.0351 14.1532 32.4953V34.9949H8.99723V29.9956H15.0125Z" fill="#FFBB01"/>
<path d="M20.1686 28.3292C19.694 28.3292 19.3092 28.7023 19.3092 29.1624V35.8281C19.3092 36.2883 19.694 36.6613 20.1686 36.6613H27.0432C27.5178 36.6613 27.9025 36.2883 27.9025 35.8281V29.1624C27.9025 28.7023 27.5178 28.3292 27.0432 28.3292H20.1686ZM26.1839 34.9949H21.0279V29.9956H26.1839V34.9949Z" fill="#FFBB01"/>
<path d="M39.0738 23.3299C39.5483 23.3299 39.9331 22.9569 39.9331 22.4967V17.4975C39.9331 17.0373 39.5483 16.6642 39.0738 16.6642H32.1991C31.7246 16.6642 31.3398 17.0373 31.3398 17.4975V24.1632C31.3398 24.6233 31.7246 24.9964 32.1991 24.9964C32.6737 24.9964 33.0585 24.6233 33.0585 24.1632V18.3307H38.2144V22.4967C38.2144 22.9569 38.5992 23.3299 39.0738 23.3299Z" fill="#FFBB01"/>
<path d="M27.6533 16.9059C27.4918 16.7481 27.2723 16.6594 27.0432 16.6594C26.8141 16.6594 26.5943 16.7481 26.4331 16.9059L23.6059 19.6553L20.7787 16.9059C20.4417 16.5792 19.8954 16.5792 19.5585 16.9059C19.2216 17.2326 19.2216 17.7623 19.5585 18.089L22.3941 20.8303L19.5585 23.5716C19.3957 23.7278 19.3042 23.941 19.3042 24.1632C19.3042 24.3853 19.3957 24.5985 19.5585 24.7547C19.7196 24.9126 19.9395 25.0012 20.1686 25.0012C20.3977 25.0012 20.6171 24.9126 20.7787 24.7547L23.6059 22.0053L26.4331 24.7547C26.5943 24.9126 26.8141 25.0012 27.0432 25.0012C27.2723 25.0012 27.4918 24.9126 27.6533 24.7547C27.8161 24.5985 27.9076 24.3853 27.9076 24.1632C27.9076 23.941 27.8161 23.7278 27.6533 23.5716L24.8177 20.8303L27.6533 18.089C27.8161 17.9328 27.9076 17.7196 27.9076 17.4975C27.9076 17.2753 27.8161 17.0621 27.6533 16.9059V16.9059Z" fill="#FFBB01"/>
</svg>
