<svg width="40" height="50" viewBox="0 0 40 50" fill="none" xmlns="http://www.w3.org/2000/svg">
<path d="M30.905 11.8336C30.7271 11.2 30.2932 10.6598 29.6995 10.3324C29.1054 10.0033 28.3991 9.91425 27.7364 10.0846C27.0746 10.2554 26.5108 10.6707 26.169 11.2395L25.7384 11.9573C25.3293 11.7321 24.8067 11.8646 24.5674 12.2546L22.3802 15.8262L21.631 15.4138C21.4325 15.3038 21.1962 15.274 20.9751 15.3312C20.7535 15.3888 20.5651 15.5282 20.4512 15.7191C20.2178 16.1134 20.3599 16.6145 20.7699 16.8409L21.5191 17.2534L14.1998 29.4049L12.3914 34.0331L11.5303 35.5755C11.0262 36.4157 11.08 37.4602 11.6682 38.2485L9.73078 40.5251L9.18839 39.2221C8.94368 38.6412 8.37733 38.2432 7.72604 38.1945C7.07433 38.1454 6.44995 38.4539 6.11401 38.9909L5.80413 39.494L5.51149 36.1942C5.44422 35.4135 4.81312 34.786 4.00163 34.6917C3.18973 34.5978 2.42114 35.0639 2.16171 35.8067L0.0434527 41.8947C-0.104548 42.3253 0.137635 42.7893 0.585842 42.9343C0.669933 42.9718 0.760332 42.9944 0.852832 43C1.22283 43.0012 1.55247 42.7752 1.67104 42.4393L3.78047 36.3513L4.08194 39.7002C4.14417 40.4148 4.68025 41.0089 5.40932 41.1708C6.1384 41.3328 6.89269 41.025 7.27657 40.4099L7.59528 39.9064L8.12926 41.2019C8.35588 41.7477 8.86842 42.1372 9.47514 42.2238C10.0819 42.3104 10.6907 42.0812 11.0741 41.6224L13.0806 39.189C13.3026 39.2446 13.5313 39.2724 13.7609 39.2716C14.6838 39.2785 15.5407 38.8128 16.0082 38.0503L16.8693 36.6727L20.1501 32.8533L27.5468 20.5532L28.296 20.9657C28.4958 21.0752 28.6412 21.2561 28.7005 21.4692C28.7602 21.6806 28.7291 21.9062 28.6148 22.0959L25.1704 27.813C25.0405 28.0007 24.9963 28.2311 25.0484 28.451C25.1006 28.6705 25.244 28.8603 25.4458 28.9759C25.6442 29.0862 25.8805 29.116 26.1017 29.0589C26.3233 29.0012 26.5116 28.8619 26.6256 28.6709L30.07 22.9539C30.4135 22.3847 30.5064 21.708 30.3281 21.0732C30.1498 20.4392 29.7164 19.899 29.1227 19.5715L28.3734 19.1591L30.5262 15.587C30.7612 15.195 30.6229 14.6948 30.2163 14.4652L30.6468 13.7474C30.9996 13.1693 31.0929 12.4789 30.905 11.8336V11.8336ZM27.6586 12.0644C27.7726 11.8735 27.9618 11.7337 28.1842 11.6769C28.4054 11.6246 28.6391 11.654 28.8384 11.7595C29.0382 11.8687 29.1836 12.0499 29.2433 12.2626C29.298 12.4745 29.2673 12.6984 29.1571 12.8894L28.7266 13.6072L27.2281 12.7822L27.6586 12.0644ZM15.922 35.0973L15.4915 34.8581L14.2171 34.1483L15.4397 31.0137L18.1521 32.5149L15.922 35.0973ZM13.3387 37.4811C12.975 37.2382 12.8632 36.771 13.0806 36.4004L13.5111 35.683L15.0092 36.508L14.5786 37.2173C14.458 37.4179 14.2553 37.5605 14.0194 37.6108C13.7836 37.6608 13.5368 37.6141 13.3387 37.4811ZM19.1339 31.1623L16.1545 29.5124L23.0433 18.0783L26.0226 19.7282L19.1339 31.1623ZM26.8837 18.3011L23.9044 16.6512L25.6266 13.7969L28.6059 15.4468L26.8837 18.3011Z" fill="#FFBB01"/>
<path d="M14.1476 37.3436L11.1985 40.285L9.43203 38.5186C9.10697 38.1955 8.58216 38.1955 8.2571 38.5186C8.09925 38.6752 8.01056 38.888 8.01056 39.1101C8.01056 39.3322 8.09925 39.5454 8.2571 39.7016L10.0236 41.4681C10.336 41.7781 10.7583 41.9518 11.1985 41.9514C11.6411 41.9538 12.0671 41.7801 12.3816 41.4681L15.3225 38.5186C15.6057 38.1878 15.5866 37.6951 15.279 37.3876C14.971 37.0796 14.4784 37.0605 14.1476 37.3436Z" fill="#FFBB01"/>
<path d="M4.33282 39.585C4.33282 43.4966 7.50367 46.6671 11.415 46.6671C15.3262 46.6671 18.4971 43.4966 18.4971 39.585C18.4971 39.1248 18.124 38.7518 17.6639 38.7518C17.2038 38.7518 16.8307 39.1248 16.8307 39.585C16.8307 42.576 14.406 45.0007 11.415 45.0007C8.42392 45.0007 5.99921 42.576 5.99921 39.585C5.99921 36.5939 8.42392 34.1692 11.415 34.1692C12.5874 34.166 13.7286 34.5463 14.6643 35.2526C15.0325 35.5288 15.5549 35.454 15.8307 35.0858C16.1069 34.7176 16.0325 34.1957 15.6643 33.9194C13.5183 32.31 10.6469 32.0512 8.24777 33.2506C5.84827 34.4503 4.33282 36.9027 4.33282 39.585Z" fill="#FFBB01"/>
<path d="M30.9948 6.67383C31.455 6.67383 31.828 6.30117 31.828 5.84064C31.828 5.38051 31.455 5.00745 30.9948 5.00745H9.33185C8.87172 5.00745 8.49866 5.38051 8.49866 5.84064V9.1734C8.49866 9.63394 8.87172 10.0066 9.33185 10.0066H30.9948C31.455 10.0066 31.828 9.63394 31.828 9.1734C31.828 8.71328 31.455 8.34021 30.9948 8.34021H10.165V6.67383H30.9948Z" fill="#FFBB01"/>
<path d="M11.8315 11.673C11.3714 11.673 10.9983 12.0461 10.9983 12.5062C10.9983 12.9668 11.3714 13.3394 11.8315 13.3394H28.4953C28.9554 13.3394 29.3285 12.9668 29.3285 12.5062C29.3285 12.0461 28.9554 11.673 28.4953 11.673H11.8315Z" fill="#FFBB01"/>
<path d="M33.4945 17.5053H15.1643C14.7042 17.5053 14.3311 17.8784 14.3311 18.3385C14.3311 18.799 14.7042 19.1717 15.1643 19.1717H33.4945C33.9546 19.1717 34.3277 18.799 34.3277 18.3385C34.3277 17.8784 33.9546 17.5053 33.4945 17.5053Z" fill="#FFBB01"/>
<path d="M25.1625 23.3377C25.1625 22.8776 24.7895 22.5045 24.3294 22.5045H7.66553C7.2054 22.5045 6.83234 22.8776 6.83234 23.3377C6.83234 23.7982 7.2054 24.1709 7.66553 24.1709H24.3294C24.7895 24.1709 25.1625 23.7982 25.1625 23.3377Z" fill="#FFBB01"/>
<path d="M33.4944 22.5045H27.6621C27.202 22.5045 26.8289 22.8776 26.8289 23.3377C26.8289 23.7982 27.202 24.1709 27.6621 24.1709H33.4944C33.9546 24.1709 34.3276 23.7982 34.3276 23.3377C34.3276 22.8776 33.9546 22.5045 33.4944 22.5045Z" fill="#FFBB01"/>
<path d="M15.9974 28.3368C16.4576 28.3368 16.8306 27.9642 16.8306 27.5037C16.8306 27.0435 16.4576 26.6705 15.9974 26.6705H7.66553C7.2054 26.6705 6.83234 27.0435 6.83234 27.5037C6.83234 27.9642 7.2054 28.3368 7.66553 28.3368H15.9974Z" fill="#FFBB01"/>
<path d="M19.3301 28.3368H25.1625C25.6226 28.3368 25.9957 27.9642 25.9957 27.5037C25.9957 27.0435 25.6226 26.6705 25.1625 26.6705H19.3301C18.87 26.6705 18.4969 27.0435 18.4969 27.5037C18.4969 27.9642 18.87 28.3368 19.3301 28.3368Z" fill="#FFBB01"/>
<path d="M38.4936 38.3352C38.0335 38.3352 37.6604 38.7082 37.6604 39.1684V47.5003C37.6604 47.9608 37.2874 48.3335 36.8272 48.3335H3.49957C3.03945 48.3335 2.66638 47.9608 2.66638 47.5003V2.50794C2.66638 2.04781 3.03945 1.67474 3.49957 1.67474H36.8272C37.2874 1.67474 37.6604 2.04781 37.6604 2.50794V18.1555C37.6604 18.6156 38.0335 18.9887 38.4936 18.9887C38.9537 18.9887 39.3268 18.6156 39.3268 18.1555V2.50794C39.3268 1.12756 38.2076 0.00836182 36.8272 0.00836182H3.49957C2.11919 0.00836182 1 1.12756 1 2.50794V47.5003C1 48.8811 2.11919 49.9998 3.49957 49.9998H36.8272C38.2076 49.9998 39.3268 48.8811 39.3268 47.5003V39.1684C39.3268 38.7082 38.9537 38.3352 38.4936 38.3352Z" fill="#FFBB01"/>
</svg>
