<svg width="68" height="11" viewBox="0 0 68 11" fill="none" xmlns="http://www.w3.org/2000/svg">
<path d="M6.0053 9.88443C5.58832 10.0457 4.70998 10.2156 4.00021 10.2156C2.8912 10.2156 2.04835 9.91839 1.40956 9.29859C0.575588 8.51748 0.131986 7.15052 0.158602 5.54584C0.202963 2.16666 2.21692 0.765747 4.27525 0.765747C5.01163 0.765747 5.55283 0.901592 5.86335 1.04593L5.53508 2.59967C5.26005 2.46382 4.88742 2.38741 4.42607 2.38741C3.14849 2.38741 2.1282 3.23645 2.1282 5.64772C2.1282 7.8807 3.03316 8.68728 3.91149 8.68728C4.08006 8.68728 4.21314 8.6703 4.28412 8.63634V6.40337H3.41465V4.92604H6.01418V9.88443H6.0053Z" fill="white"/>
<path d="M7.4249 0.843262H9.31466V8.59499H11.7988V10.1233H7.4249V0.843262Z" fill="white"/>
<path d="M18.2222 5.32604C18.2222 8.82408 16.9268 10.242 15.0814 10.242C12.89 10.242 12.0206 8.01749 12.0206 5.47038C12.0206 2.93175 13.0763 0.741233 15.2234 0.741233C17.5568 0.732742 18.2222 3.19495 18.2222 5.32604ZM13.9813 5.48736C13.9813 7.59297 14.3894 8.67125 15.1524 8.67125C15.9509 8.67125 16.2526 7.28732 16.2526 5.41094C16.2526 3.7723 15.9953 2.30346 15.1435 2.30346C14.3894 2.30346 13.9813 3.49212 13.9813 5.48736Z" fill="white"/>
<path d="M23.2349 8.00914L22.809 10.1317H20.9814L23.0841 0.843262H25.3464L27.2362 10.1233H25.3997L24.9827 8.00066H23.2349V8.00914ZM24.8141 6.60823L24.4947 4.66393C24.3971 4.10357 24.2729 3.16963 24.1753 2.55832H24.1398C24.0334 3.17812 23.8914 4.13753 23.7938 4.67243L23.4389 6.60823H24.8141Z" fill="white"/>
<path d="M32.7014 9.98614C32.4263 10.105 31.9029 10.2069 31.2463 10.2069C28.771 10.2069 27.5822 8.2541 27.5822 5.62208C27.5822 2.12403 29.6139 0.75708 31.4948 0.75708C32.1602 0.75708 32.6215 0.884435 32.8167 1.0033L32.5062 2.52308C32.2844 2.4212 32.0448 2.33629 31.6278 2.33629C30.5543 2.33629 29.5873 3.22778 29.5873 5.52019C29.5873 7.73618 30.4656 8.6022 31.6101 8.6022C31.9295 8.6022 32.2932 8.53428 32.515 8.46636L32.7014 9.98614Z" fill="white"/>
<path d="M35.5051 8.00914L35.0793 10.1317H33.2516L35.3543 0.843262H37.6167L39.5064 10.1233H37.6699L37.2529 8.00066H35.5051V8.00914ZM37.0844 6.60823L36.765 4.66393C36.6674 4.10357 36.5432 3.16963 36.4456 2.55832H36.4101C36.3036 3.17812 36.1617 4.13753 36.0641 4.67243L35.7092 6.60823H37.0844Z" fill="white"/>
<path d="M40.5621 0.978592C41.0323 0.876707 41.7243 0.800293 42.4785 0.800293C43.7028 0.800293 44.5545 1.07199 45.1756 1.62386C46.0096 2.33705 46.4354 3.56816 46.4354 5.36812C46.4354 7.25299 45.9297 8.57749 45.0869 9.29917C44.4215 9.90199 43.4722 10.1992 42.1236 10.1992C41.5292 10.1992 40.9347 10.1397 40.5621 10.0973V0.978592ZM42.443 8.69636C42.5406 8.72183 42.6825 8.72183 42.7801 8.72183C43.6939 8.72183 44.4836 7.87279 44.4836 5.30869C44.4836 3.39835 43.969 2.24366 42.8245 2.24366C42.6914 2.24366 42.5672 2.25215 42.443 2.28611V8.69636Z" fill="white"/>
<path d="M51.7232 6.04787H49.5141V8.56102H52.0071V10.1233H47.6243V0.843262H51.8385V2.40549H49.5141V4.53658H51.7232V6.04787Z" fill="white"/>
<path d="M59.229 6.87927C59.1758 5.98778 59.1226 4.79912 59.1403 3.79726H59.1048C58.9274 4.79063 58.6701 5.93684 58.4926 6.65852L57.6498 9.96978H56.3101L55.5027 6.70946C55.3164 5.96231 55.0591 4.80761 54.9083 3.79726H54.8728C54.8462 4.80761 54.7752 5.97929 54.7309 6.89625L54.5623 10.1141H52.9476L53.6485 0.834106H55.6358L56.4077 4.19631C56.6739 5.37647 56.9223 6.39532 57.0909 7.44813H57.1263C57.2772 6.42079 57.4901 5.36798 57.7474 4.19631L58.5104 0.834106H60.4978L61.0833 10.1141H59.3976L59.229 6.87927Z" fill="white"/>
<path d="M63.4964 10.1226V6.5736L61.3671 0.842597H63.3811L64.0376 3.0501C64.2239 3.65291 64.4014 4.34063 64.5433 5.01986H64.57C64.6942 4.34912 64.845 3.67838 65.0224 3.00764L65.5902 0.834106H67.5421L65.3773 6.49719V10.1226H63.4964Z" fill="white"/>
</svg>
